<svg width="137" height="44" viewBox="0 0 137 44" fill="none" xmlns="http://www.w3.org/2000/svg">
<g clip-path="url(#clip0_2_3)">
<path fill-rule="evenodd" clip-rule="evenodd" d="M26.2677 0.246826C26.7091 0.246826 27.1505 0.614678 27.1505 1.12967V10.9881L34.0661 3.99892C34.434 3.63106 35.0225 3.63106 35.3168 3.99892L40.6139 9.29598C40.9082 9.59027 40.9817 10.1788 40.6139 10.4731V10.5467L33.6247 17.4623H43.4831C43.9981 17.4623 44.366 17.8302 44.366 18.3451V25.7758C44.366 26.2907 43.9981 26.6586 43.4831 26.6586H33.6247L40.6139 33.5742C40.9082 33.9421 40.9817 34.5306 40.6139 34.8249L35.3168 40.122C35.0225 40.4163 34.434 40.4898 34.1397 40.122H34.0661L27.1505 33.1328V42.9912C27.1505 43.5062 26.7827 43.8741 26.2677 43.8741H18.8371C18.3221 43.8741 17.9542 43.5062 17.9542 42.9912V37.8413C17.9542 36.2227 18.6163 34.6778 19.7199 33.5006L29.2841 23.9365C30.314 22.9065 30.314 21.2144 29.2841 20.1844L19.7935 10.6938C18.6309 9.5468 17.9697 7.98624 17.9542 6.35317V1.12967C17.9542 0.614678 18.3221 0.246826 18.8371 0.246826H26.2677ZM10.8915 4.07249H10.965L27.0769 20.1844C28.1069 21.2144 28.1069 22.9065 27.0769 23.9365L10.965 40.122C10.6707 40.4898 10.0822 40.4898 9.71433 40.122L4.49083 34.9721C4.19655 34.6042 4.12298 34.0892 4.49083 33.7214L11.48 26.6586H1.62158C1.10659 26.6586 0.738739 26.2907 0.738739 25.7758V18.3451C0.738739 17.8302 1.10659 17.4623 1.62158 17.4623H11.48L4.49083 10.5467C4.19655 10.1788 4.19655 9.66384 4.49083 9.29598L9.71433 4.07249C10.0086 3.70463 10.5972 3.70463 10.8915 4.07249Z" fill="#f0f6fc"/>
</g>
<path d="M67.6168 18.0174C67.5375 17.2175 67.1971 16.5962 66.5955 16.1533C65.994 15.7104 65.1776 15.489 64.1465 15.489C63.4458 15.489 62.8542 15.5881 62.3716 15.7864C61.8891 15.9781 61.5189 16.2458 61.2611 16.5896C61.0099 16.9333 60.8843 17.3233 60.8843 17.7596C60.8711 18.1231 60.9471 18.4404 61.1124 18.7114C61.2842 18.9825 61.5189 19.2171 61.8164 19.4154C62.1138 19.6071 62.4575 19.7757 62.8475 19.9211C63.2375 20.0599 63.654 20.1789 64.0969 20.2781L65.9213 20.7143C66.8071 20.9126 67.6201 21.177 68.3604 21.5075C69.1008 21.8381 69.742 22.2446 70.284 22.7271C70.826 23.2097 71.2458 23.7781 71.5433 24.4326C71.8473 25.087 72.0027 25.8372 72.0093 26.6833C72.0027 27.926 71.6854 29.0035 71.0574 29.9157C70.436 30.8213 69.5371 31.5253 68.3604 32.0277C67.1904 32.5234 65.7792 32.7713 64.1266 32.7713C62.4873 32.7713 61.0595 32.5201 59.8432 32.0177C58.6336 31.5154 57.6883 30.7717 57.0074 29.7868C56.3332 28.7953 55.9796 27.5691 55.9465 26.1082H60.101C60.1473 26.7891 60.3423 27.3576 60.686 27.8137C61.0364 28.2632 61.5024 28.6036 62.0841 28.8349C62.6724 29.0597 63.3367 29.1721 64.077 29.1721C64.8042 29.1721 65.4354 29.0663 65.9709 28.8548C66.5129 28.6432 66.9326 28.3491 67.2301 27.9723C67.5276 27.5955 67.6763 27.1626 67.6763 26.6734C67.6763 26.2173 67.5408 25.8339 67.2698 25.5232C67.0054 25.2126 66.6154 24.9481 66.0998 24.73C65.5908 24.5119 64.9661 24.3136 64.2258 24.1351L62.0147 23.5798C60.3026 23.1634 58.9508 22.5123 57.9593 21.6265C56.9678 20.7408 56.4753 19.5476 56.4819 18.0471C56.4753 16.8176 56.8025 15.7435 57.4635 14.8246C58.1312 13.9058 59.0467 13.1886 60.2101 12.673C61.3735 12.1574 62.6955 11.8996 64.1762 11.8996C65.6833 11.8996 66.9987 12.1574 68.1225 12.673C69.2528 13.1886 70.132 13.9058 70.7599 14.8246C71.3879 15.7435 71.7118 16.8077 71.7316 18.0174H67.6168ZM80.8613 32.7812C79.3013 32.7812 77.9595 32.4507 76.8357 31.7897C75.7186 31.1221 74.8593 30.1966 74.2578 29.0134C73.6628 27.8302 73.3654 26.4685 73.3654 24.9283C73.3654 23.3683 73.6661 22 74.2677 20.8234C74.8758 19.6402 75.7384 18.718 76.8556 18.057C77.9727 17.3894 79.3013 17.0556 80.8415 17.0556C82.1702 17.0556 83.3335 17.2969 84.3317 17.7794C85.3298 18.2619 86.1197 18.9395 86.7014 19.812C87.2831 20.6846 87.6037 21.7092 87.6632 22.8858H83.6773C83.5649 22.1256 83.2674 21.5142 82.7849 21.0514C82.309 20.5821 81.6843 20.3475 80.9109 20.3475C80.2565 20.3475 79.6847 20.5259 79.1956 20.8829C78.713 21.2332 78.3362 21.7455 78.0652 22.4198C77.7942 23.094 77.6587 23.9103 77.6587 24.8688C77.6587 25.8405 77.7909 26.6668 78.0553 27.3476C78.3263 28.0285 78.7064 28.5474 79.1956 28.9043C79.6847 29.2613 80.2565 29.4398 80.9109 29.4398C81.3935 29.4398 81.8264 29.3406 82.2098 29.1423C82.5998 28.944 82.9204 28.6565 83.1716 28.2797C83.4294 27.8963 83.598 27.4369 83.6773 26.9015H87.6632C87.5971 28.0649 87.2798 29.0894 86.7114 29.9752C86.1495 30.8544 85.3728 31.5418 84.3813 32.0376C83.3897 32.5333 82.2164 32.7812 80.8613 32.7812ZM93.8729 32.7713C92.9012 32.7713 92.0352 32.6027 91.2751 32.2656C90.5149 31.9219 89.9134 31.4162 89.4705 30.7486C89.0342 30.0744 88.8161 29.2349 88.8161 28.2301C88.8161 27.384 88.9714 26.6734 89.2821 26.0983C89.5928 25.5232 90.0158 25.0605 90.5512 24.7102C91.0867 24.3598 91.6948 24.0954 92.3757 23.917C93.0631 23.7385 93.7836 23.6129 94.5372 23.5402C95.423 23.4476 96.1369 23.3617 96.6789 23.2824C97.2209 23.1964 97.6142 23.0709 97.8588 22.9056C98.1034 22.7403 98.2257 22.4958 98.2257 22.1719V22.1124C98.2257 21.4844 98.0274 20.9986 97.6308 20.6548C97.2408 20.3111 96.6855 20.1392 95.965 20.1392C95.2048 20.1392 94.6 20.3078 94.1505 20.6449C93.701 20.9754 93.4035 21.3919 93.2581 21.8942L89.3515 21.577C89.5498 20.6515 89.9398 19.8517 90.5215 19.1775C91.1032 18.4966 91.8535 17.9744 92.7723 17.6108C93.6977 17.2407 94.7685 17.0556 95.9848 17.0556C96.8309 17.0556 97.6407 17.1547 98.4141 17.353C99.1941 17.5513 99.8848 17.8587 100.486 18.2752C101.094 18.6916 101.574 19.227 101.924 19.8814C102.274 20.5292 102.45 21.3059 102.45 22.2115V32.4838H98.4438V30.3718H98.3248C98.0803 30.8477 97.753 31.2675 97.3432 31.6311C96.9334 31.988 96.4409 32.2689 95.8658 32.4738C95.2908 32.6722 94.6264 32.7713 93.8729 32.7713ZM95.0825 29.8562C95.7039 29.8562 96.2525 29.7339 96.7285 29.4893C97.2044 29.2382 97.5779 28.901 97.8489 28.478C98.1199 28.0549 98.2554 27.5757 98.2554 27.0403V25.4241C98.1232 25.51 97.9414 25.5893 97.7101 25.662C97.4853 25.7282 97.2308 25.7909 96.9466 25.8504C96.6624 25.9033 96.3781 25.9529 96.0939 25.9992C95.8097 26.0388 95.5519 26.0752 95.3205 26.1082C94.8247 26.1809 94.3918 26.2966 94.0216 26.4553C93.6514 26.6139 93.3639 26.8287 93.159 27.0998C92.9541 27.3642 92.8516 27.6947 92.8516 28.0913C92.8516 28.6664 93.0598 29.106 93.4763 29.41C93.8993 29.7075 94.4347 29.8562 95.0825 29.8562ZM109.113 12.1773V32.4838H104.889V12.1773H109.113ZM116.002 32.7713C115.03 32.7713 114.164 32.6027 113.404 32.2656C112.644 31.9219 112.042 31.4162 111.599 30.7486C111.163 30.0744 110.945 29.2349 110.945 28.2301C110.945 27.384 111.1 26.6734 111.411 26.0983C111.722 25.5232 112.145 25.0605 112.68 24.7102C113.216 24.3598 113.824 24.0954 114.504 23.917C115.192 23.7385 115.912 23.6129 116.666 23.5402C117.552 23.4476 118.266 23.3617 118.808 23.2824C119.35 23.1964 119.743 23.0709 119.988 22.9056C120.232 22.7403 120.355 22.4958 120.355 22.1719V22.1124C120.355 21.4844 120.156 20.9986 119.76 20.6548C119.37 20.3111 118.814 20.1392 118.094 20.1392C117.334 20.1392 116.729 20.3078 116.279 20.6449C115.83 20.9754 115.532 21.3919 115.387 21.8942L111.48 21.577C111.679 20.6515 112.069 19.8517 112.65 19.1775C113.232 18.4966 113.982 17.9744 114.901 17.6108C115.827 17.2407 116.897 17.0556 118.114 17.0556C118.96 17.0556 119.77 17.1547 120.543 17.353C121.323 17.5513 122.014 17.8587 122.615 18.2752C123.223 18.6916 123.703 19.227 124.053 19.8814C124.403 20.5292 124.578 21.3059 124.578 22.2115V32.4838H120.573V30.3718H120.454C120.209 30.8477 119.882 31.2675 119.472 31.6311C119.062 31.988 118.57 32.2689 117.995 32.4738C117.42 32.6722 116.755 32.7713 116.002 32.7713ZM117.211 29.8562C117.833 29.8562 118.381 29.7339 118.857 29.4893C119.333 29.2382 119.707 28.901 119.978 28.478C120.249 28.0549 120.384 27.5757 120.384 27.0403V25.4241C120.252 25.51 120.07 25.5893 119.839 25.662C119.614 25.7282 119.36 25.7909 119.075 25.8504C118.791 25.9033 118.507 25.9529 118.223 25.9992C117.938 26.0388 117.681 26.0752 117.449 26.1082C116.954 26.1809 116.521 26.2966 116.15 26.4553C115.78 26.6139 115.493 26.8287 115.288 27.0998C115.083 27.3642 114.98 27.6947 114.98 28.0913C114.98 28.6664 115.189 29.106 115.605 29.41C116.028 29.7075 116.564 29.8562 117.211 29.8562ZM127.018 32.4838V17.2539H131.113V19.9112H131.271C131.549 18.9659 132.015 18.252 132.669 17.7695C133.324 17.2803 134.077 17.0358 134.93 17.0358C135.142 17.0358 135.37 17.049 135.614 17.0754C135.859 17.1019 136.074 17.1382 136.259 17.1845V20.9325C136.061 20.873 135.786 20.8201 135.436 20.7738C135.086 20.7275 134.765 20.7044 134.474 20.7044C133.853 20.7044 133.297 20.8399 132.808 21.1109C132.326 21.3753 131.942 21.7455 131.658 22.2214C131.38 22.6974 131.242 23.246 131.242 23.8674V32.4838H127.018Z" fill="#f0f6fc"/>
<defs>
<clipPath id="clip0_2_3">
<rect width="43.6272" height="43.6272" fill="white" transform="translate(0.738586 0.247803)"/>
</clipPath>
</defs>
</svg>
