
<svg xmlns="http://www.w3.org/2000/svg" xml:space="preserve" viewBox="0 0 335 34.4"><path fill="currentColor" d="m.3 33.6 29.2-18.2h15.2c.5 0 .9.4.9.9 0 .4-.2.6-.4.7l-14.4 8.6c-.9.6-1.3 1.7-1.3 2.5v5.4h18.3V2c0-.6-.5-1.1-1.2-1.1H29.2L0 19v14.6zM240 33.6h26.3v-7.1h-18v-5.9h14.5v-7.1h-14.5V8h18V.9H240zM74.8.9 62.2 33.6h8.6l2.2-6.1h14l2.1 6.1H98L85.4.9zm.7 19.6 4.6-12.8 4.5 12.8zM133.8 8h10.5v25.6h8.3V8h10.5V.9h-29.4V8zM121.7 21c0 4.2-2.6 6-7.1 6-4.3 0-7.1-1.8-7.1-6V.8h-8.3V22c0 9.4 8.4 12.4 15.5 12.4 7 0 15.4-2.9 15.4-12.4V.8h-8.3zM335 .9h-9.9l-11.9 13.3V.9h-8.3v32.7h8.3V21.2l11.3 12.4H335l-15.2-16.1zM220.4.9h-15.3v32.7h15.3c11.7 0 14.9-4.4 14.9-16.6 0-11.5-3.1-16.1-14.9-16.1m-.4 25.6h-6.6V8h6.6c5.2 0 6.8 1.4 6.8 9 0 6.9-1.7 9.5-6.8 9.5M291.5 14.3l-7.6-.9c-4.4-.5-5.6-1.6-5.6-3.1 0-1.7 2.3-3.2 6.7-3.2 4.3 0 6.5 1.6 6.9 4h8.2C299.7 4.3 293.9 0 285.5 0c-10 0-15.1 4-15.1 11.1 0 5.7 3.4 8.5 10.3 9.2l7.7.8c2.9.3 4.3 1.5 4.3 2.9 0 1.7-2 3.2-6.7 3.2-5.5 0-7.7-1.4-8-4.2h-8c.4 7.5 5.3 11.4 15.8 11.4 9.6 0 14.9-4.2 14.9-10.5-.1-5.6-3.3-8.9-9.2-9.6M182.5 0c-11.9 0-18 7.3-18 17.1 0 9.9 6.2 17.2 18 17.2 11.9 0 18.1-7.3 18.1-17.2 0-9.8-6.2-17.1-18.1-17.1m0 27c-6.2 0-9.5-3.8-9.5-9.9 0-6 3.4-9.8 9.5-9.8 6.2 0 9.5 3.8 9.5 9.8.1 6.2-3.3 9.9-9.5 9.9"/></svg>
