
<svg xmlns="http://www.w3.org/2000/svg" xml:space="preserve" viewBox="0 0 120.4 72"><g fill="currentColor"><path d="M33.9 26.1c0 1.5.2 2.7.4 3.6.3.9.7 1.8 1.3 2.9q.3.45.3.9c0 .4-.2.8-.8 1.2l-2.5 1.7c-.4.2-.7.4-1 .4q-.6 0-1.2-.6c-.6-.6-1-1.2-1.4-1.9s-.8-1.4-1.2-2.4c-3.1 3.7-7 5.5-11.8 5.5-3.4 0-6-1-8-2.9S5 30 5 26.8c0-3.4 1.2-6.2 3.6-8.2s5.7-3.1 9.8-3.1q2.1 0 4.2.3c1.5.2 3 .5 4.6.9v-2.9c0-3-.6-5.2-1.9-6.4s-3.4-1.8-6.5-1.8c-1.4 0-2.8.2-4.3.5-1.5.4-2.9.8-4.3 1.4-.6.2-1.1.4-1.4.5-.3 0-.5.1-.6.1-.6 0-.8-.4-.8-1.2v-2c0-.6.1-1.1.3-1.4s.6-.6 1.1-.8c1.4-.7 3.1-1.3 5-1.8 2-.5 4-.8 6.2-.8 4.8 0 8.2 1.1 10.5 3.2 2.2 2.2 3.3 5.4 3.3 9.9zm-16.2 6.1c1.3 0 2.7-.2 4.1-.7s2.7-1.4 3.8-2.6c.6-.8 1.1-1.6 1.4-2.6.2-1 .4-2.1.4-3.5v-1.7c-1.2-.3-2.4-.5-3.7-.7s-2.5-.2-3.8-.2c-2.7 0-4.6.5-6 1.6-1.3 1.1-2 2.6-2 4.6q0 2.85 1.5 4.2c1 1.2 2.4 1.6 4.3 1.6m32.1 4.4c-.7 0-1.2-.1-1.5-.4-.3-.2-.6-.8-.8-1.6l-9.4-31c-.2-.8-.4-1.3-.4-1.6 0-.6.3-1 1-1h3.9c.8 0 1.3.1 1.6.4.3.2.6.8.8 1.6l6.7 26.5L57.9 3c.2-.8.4-1.3.8-1.6.3-.2.9-.4 1.6-.4h3.2c.8 0 1.3.1 1.6.4.3.2.6.8.8 1.6l6.3 26.8L79.1 3c.2-.8.5-1.3.8-1.6.3-.2.8-.4 1.6-.4h3.7c.6 0 1 .3 1 1 0 .2 0 .4-.1.6 0 .2-.1.6-.3 1l-9.7 31c-.2.8-.5 1.3-.8 1.6-.3.2-.8.4-1.5.4h-3.4c-.8 0-1.3-.1-1.6-.4s-.6-.8-.8-1.6L61.8 8.8l-6.2 25.8c-.2.8-.4 1.3-.8 1.6-.3.3-.9.4-1.6.4zm51.5 1c-2.1 0-4.2-.2-6.2-.7s-3.6-1-4.6-1.6c-.6-.4-1.1-.8-1.2-1.1s-.3-.8-.3-1.1v-2q0-1.2.9-1.2c.2 0 .5 0 .7.1s.6.2 1 .4c1.4.6 2.8 1.1 4.4 1.4s3.2.5 4.8.5c2.5 0 4.5-.4 5.8-1.3 1.4-.9 2.1-2.2 2.1-3.8 0-1.1-.4-2-1.1-2.8s-2.1-1.4-4-2.1l-5.8-1.8c-2.9-.9-5.1-2.3-6.4-4.1s-2-3.7-2-5.8c0-1.7.4-3.2 1.1-4.4s1.7-2.4 2.9-3.3q1.8-1.35 4.2-2.1c1.6-.5 3.3-.7 5-.7.9 0 1.8 0 2.7.2.9.1 1.8.3 2.6.4.8.2 1.6.4 2.3.6s1.3.5 1.7.7c.6.3 1 .6 1.2 1 .2.3.4.8.4 1.3v1.9c0 .8-.3 1.3-.9 1.3-.3 0-.8-.2-1.5-.5-2.3-1-4.8-1.6-7.7-1.6-2.3 0-4.1.4-5.3 1.1s-1.9 1.9-1.9 3.6c0 1.1.4 2.1 1.2 2.8.8.8 2.3 1.5 4.4 2.2l5.7 1.8c2.9.9 5 2.2 6.2 3.8s1.8 3.5 1.8 5.6c0 1.7-.4 3.3-1 4.6-.7 1.4-1.7 2.6-2.9 3.5-1.2 1-2.7 1.7-4.4 2.2-2 .8-3.9 1-5.9 1M108.9 57.1C95.7 66.8 76.5 72 60.1 72 37 72 16.2 63.5.5 49.3c-1.2-1.1-.1-2.6 1.4-1.8 17 9.9 37.9 15.8 59.6 15.8 14.6 0 30.7-3 45.5-9.3 2.1-.9 4 1.5 1.9 3.1"/><path d="M114.3 50.9c-1.7-2.2-11.1-1-15.4-.5-1.3.2-1.5-1-.3-1.8 7.5-5.3 19.9-3.8 21.3-2s-.4 14.2-7.4 20.1c-1.1.9-2.1.4-1.6-.8 1.6-4 5.1-12.9 3.4-15"/></g><g fill="currentColor"><path d="M33.9 26.1c0 1.5.2 2.7.4 3.6.3.9.7 1.8 1.3 2.9q.3.45.3.9c0 .4-.2.8-.8 1.2l-2.5 1.7c-.4.2-.7.4-1 .4q-.6 0-1.2-.6c-.6-.6-1-1.2-1.4-1.9s-.8-1.4-1.2-2.4c-3.1 3.7-7 5.5-11.8 5.5-3.4 0-6-1-8-2.9S5 30 5 26.8c0-3.4 1.2-6.2 3.6-8.2s5.7-3.1 9.8-3.1q2.1 0 4.2.3c1.5.2 3 .5 4.6.9v-2.9c0-3-.6-5.2-1.9-6.4s-3.4-1.8-6.5-1.8c-1.4 0-2.8.2-4.3.5-1.5.4-2.9.8-4.3 1.4-.6.2-1.1.4-1.4.5-.3 0-.5.1-.6.1-.6 0-.8-.4-.8-1.2v-2c0-.6.1-1.1.3-1.4s.6-.6 1.1-.8c1.4-.7 3.1-1.3 5-1.8 2-.5 4-.8 6.2-.8 4.8 0 8.2 1.1 10.5 3.2 2.2 2.2 3.3 5.4 3.3 9.9zm-16.2 6.1c1.3 0 2.7-.2 4.1-.7s2.7-1.4 3.8-2.6c.6-.8 1.1-1.6 1.4-2.6.2-1 .4-2.1.4-3.5v-1.7c-1.2-.3-2.4-.5-3.7-.7s-2.5-.2-3.8-.2c-2.7 0-4.6.5-6 1.6-1.3 1.1-2 2.6-2 4.6q0 2.85 1.5 4.2c1 1.2 2.4 1.6 4.3 1.6m32.1 4.4c-.7 0-1.2-.1-1.5-.4-.3-.2-.6-.8-.8-1.6l-9.4-31c-.2-.8-.4-1.3-.4-1.6 0-.6.3-1 1-1h3.9c.8 0 1.3.1 1.6.4.3.2.6.8.8 1.6l6.7 26.5L57.9 3c.2-.8.4-1.3.8-1.6.3-.2.9-.4 1.6-.4h3.2c.8 0 1.3.1 1.6.4.3.2.6.8.8 1.6l6.3 26.8L79.1 3c.2-.8.5-1.3.8-1.6.3-.2.8-.4 1.6-.4h3.7c.6 0 1 .3 1 1 0 .2 0 .4-.1.6 0 .2-.1.6-.3 1l-9.7 31c-.2.8-.5 1.3-.8 1.6-.3.2-.8.4-1.5.4h-3.4c-.8 0-1.3-.1-1.6-.4s-.6-.8-.8-1.6L61.8 8.8l-6.2 25.8c-.2.8-.4 1.3-.8 1.6-.3.3-.9.4-1.6.4zm51.5 1c-2.1 0-4.2-.2-6.2-.7s-3.6-1-4.6-1.6c-.6-.4-1.1-.8-1.2-1.1s-.3-.8-.3-1.1v-2q0-1.2.9-1.2c.2 0 .5 0 .7.1s.6.2 1 .4c1.4.6 2.8 1.1 4.4 1.4s3.2.5 4.8.5c2.5 0 4.5-.4 5.8-1.3 1.4-.9 2.1-2.2 2.1-3.8 0-1.1-.4-2-1.1-2.8s-2.1-1.4-4-2.1l-5.8-1.8c-2.9-.9-5.1-2.3-6.4-4.1s-2-3.7-2-5.8c0-1.7.4-3.2 1.1-4.4s1.7-2.4 2.9-3.3q1.8-1.35 4.2-2.1c1.6-.5 3.3-.7 5-.7.9 0 1.8 0 2.7.2.9.1 1.8.3 2.6.4.8.2 1.6.4 2.3.6s1.3.5 1.7.7c.6.3 1 .6 1.2 1 .2.3.4.8.4 1.3v1.9c0 .8-.3 1.3-.9 1.3-.3 0-.8-.2-1.5-.5-2.3-1-4.8-1.6-7.7-1.6-2.3 0-4.1.4-5.3 1.1s-1.9 1.9-1.9 3.6c0 1.1.4 2.1 1.2 2.8.8.8 2.3 1.5 4.4 2.2l5.7 1.8c2.9.9 5 2.2 6.2 3.8s1.8 3.5 1.8 5.6c0 1.7-.4 3.3-1 4.6-.7 1.4-1.7 2.6-2.9 3.5-1.2 1-2.7 1.7-4.4 2.2-2 .8-3.9 1-5.9 1M108.9 57.1C95.7 66.8 76.5 72 60.1 72 37 72 16.2 63.5.5 49.3c-1.2-1.1-.1-2.6 1.4-1.8 17 9.9 37.9 15.8 59.6 15.8 14.6 0 30.7-3 45.5-9.3 2.1-.9 4 1.5 1.9 3.1"/><path d="M114.3 50.9c-1.7-2.2-11.1-1-15.4-.5-1.3.2-1.5-1-.3-1.8 7.5-5.3 19.9-3.8 21.3-2s-.4 14.2-7.4 20.1c-1.1.9-2.1.4-1.6-.8 1.6-4 5.1-12.9 3.4-15"/></g></svg>
