<svg width="452" height="131" viewBox="0 0 452 131" xmlns="http://www.w3.org/2000/svg"><path d="M130.66 41.7v47.26c0 23.03-18.67 41.7-41.7 41.7H41.7c-23.03 0-41.7-18.67-41.7-41.7V41.7C0 18.67 18.67 0 41.7 0h47.26c23.03 0 41.7 18.67 41.7 41.7m-55.6 0H55.6c-7.677 0-13.9 6.223-13.9 13.9v19.46c0 7.677 6.223 13.9 13.9 13.9h19.46c7.677 0 13.9-6.223 13.9-13.9V55.6c0-7.677-6.223-13.9-13.9-13.9" fill="currentColor"/><path d="M83.4 13.9c18.424 0 33.36 14.936 33.36 33.36V83.4c0 18.424-14.936 33.36-33.36 33.36H47.26c-18.424 0-33.36-14.936-33.36-33.36V47.26c0-18.424 14.936-33.36 33.36-33.36zm-8.34 27.8H55.6c-7.677 0-13.9 6.223-13.9 13.9v19.46c0 7.677 6.223 13.9 13.9 13.9h19.46c7.677 0 13.9-6.223 13.9-13.9V55.6c0-7.677-6.223-13.9-13.9-13.9" fill-opacity=".4" fill="#FFF"/><path d="M77.84 27.8c13.818 0 25.02 11.202 25.02 25.02v25.02c0 13.818-11.202 25.02-25.02 25.02H52.82c-13.818 0-25.02-11.202-25.02-25.02V52.82c0-13.818 11.202-25.02 25.02-25.02zm-2.78 13.9H55.6c-7.677 0-13.9 6.223-13.9 13.9v19.46c0 7.677 6.223 13.9 13.9 13.9h19.46c7.677 0 13.9-6.223 13.9-13.9V55.6c0-7.677-6.223-13.9-13.9-13.9" fill-opacity=".5" fill="#FFF"/><path d="M174.06 99.167q-7.312-3.795-11.686-10.906Q158 81.148 158 71.546t4.374-16.715q4.375-7.112 11.686-10.906 7.31-3.793 15.94-3.793 6.351 0 10.966 1.6a41.6 41.6 0 0 1 8.569 4.09q2.397 1.54 2.397 4.15 0 1.777-1.378 3.259-1.38 1.482-3.176 1.482-1.32 0-2.637-.711-3.956-2.016-6.771-2.905-2.817-.889-7.012-.889-10.305 0-16.18 5.868-5.871 5.868-5.872 15.47t5.873 15.47q5.872 5.868 16.18 5.868 4.194 0 7.01-.89 2.817-.888 6.772-2.904 1.319-.71 2.637-.71 1.797 0 3.176 1.481 1.378 1.481 1.378 3.26 0 2.609-2.397 4.149a41.6 41.6 0 0 1-8.57 4.09q-4.612 1.6-10.965 1.6c-8.193 0-8.669-.019-15.94-3.793m91.032 3.793q-14.433 0-22.538-8.239-8.104-8.238-8.104-23.175 0-8.416 3.076-15.53 3.076-7.111 9.465-11.498 6.39-4.386 15.735-4.386 8.755 0 15.144 4.09t9.701 10.906 3.313 14.877q0 2.252-1.479 3.793t-3.963 1.541h-40.107q.945 8.299 6.152 12.922 5.205 4.623 14.552 4.623 4.969 0 8.696-.949a36 36 0 0 0 7.276-2.726q.945-.474 2.13-.474 1.892 0 3.312 1.304t1.42 3.319q0 2.608-3.076 4.386-4.614 2.608-9.11 3.912t-11.595 1.304m15.144-36.393q-.355-5.808-3.017-9.72t-6.566-5.75-7.927-1.837-7.927 1.837-6.507 5.75q-2.602 3.912-2.957 9.72zm43.113 35.837q-2.322 0-3.91-1.553-1.59-1.553-1.589-3.823V19.495q0-2.27 1.589-3.882t3.91-1.613q2.444 0 4.032 1.553 1.59 1.553 1.589 3.942v77.533q0 2.27-1.65 3.823t-3.971 1.553m42.534 0q-2.322 0-3.91-1.553-1.59-1.553-1.589-3.823V19.495q0-2.27 1.589-3.882t3.91-1.613q2.444 0 4.032 1.553 1.59 1.553 1.589 3.942v77.533q0 2.27-1.65 3.823t-3.971 1.553m52.168.556q-5.285 0-9.79-2.134-4.506-2.133-7.148-6.223-2.643-4.09-2.643-9.425 0-8.772 7.028-13.988t20.602-5.216h14.536v-.948q0-7.824-3.904-11.262-3.904-3.437-12.194-3.437-4.565 0-8.108.711-3.545.71-7.869 2.134-.96.237-1.562.237-1.802 0-3.123-1.304t-1.322-3.2q0-3.202 3.124-4.505 10.21-4.268 20.783-4.268 8.288 0 13.995 3.32 5.706 3.318 8.409 8.594t2.703 11.439v33.548q0 2.252-1.622 3.793-1.621 1.542-3.904 1.541-2.283 0-3.844-1.54-1.562-1.542-1.562-3.794v-3.082q-8.89 9.009-22.585 9.009m4.085-9.483q5.286 0 10.211-2.55 4.926-2.547 8.29-6.341v-9.958h-13.095q-18.14 0-18.14 9.365 0 4.268 2.943 6.876t9.79 2.608z" fill="currentColor"/></svg>
