<svg xmlns="http://www.w3.org/2000/svg" width="640" height="210" aria-hidden="true" class="astro-wf354lec" data-icon="kinde"><symbol id="svg-kinde" viewBox="0 0 423.335 137.71"><path fill="currentColor" d="m72.301 135.385-51.24-65.486v65.486H0V1.163h21.061v63.561L70.365 1.163h24.739L43.729 66.339l55.046 69.046zm32.144 0v-96.63h19.898v96.63zm9.949-111.806c-6.665 0-11.886-5.136-11.886-11.692C102.508 5.221 107.729 0 114.394 0s11.693 5.11 11.693 11.887c0 6.557-5.136 11.692-11.693 11.692m86.938 111.806V80.094c0-14.67-9.751-25.317-23.186-25.317-13.766 0-23.38 10.411-23.38 25.317v55.291h-19.898v-96.63h14.681l4.253 11.851h.693l.971-1.292c3.242-4.457 13.044-12.885 26.942-12.885 23.104 0 38.627 16.925 38.627 42.115v56.841zm71.57 2.325c-24.919 0-44.44-22.244-44.44-50.641s19.521-50.641 44.44-50.641c14.787 0 25.17 9.125 27.105 12.256a16 16 0 0 1 1.154 1.987h1.127V1.163h19.898v134.222h-14.678l-4.221-12.045h-.765l-.931 1.289c-2.501 3.394-13.14 13.081-28.689 13.081m2.326-82.934c-15.427 0-27.061 13.883-27.061 32.293s11.634 32.294 27.061 32.294 27.062-13.884 27.062-32.294-11.634-32.293-27.062-32.293m102.311 82.934c-26.875 0-47.928-22.244-47.928-50.641 0-27.924 21.414-50.641 47.734-50.641 25.789 0 45.991 21.308 45.991 48.51 0 3.575-.372 7.167-1.003 9.754h-72.965l.152.836c2.738 15.061 13.4 24.416 27.825 24.416 12.197 0 18.639-6.294 21.489-10.27h20.676c-5.871 14.09-21.923 28.035-41.971 28.035Zm-.194-83.516c-13.924 0-25.106 10.046-27.825 24.997l-.152.836h54.774l-.131-.821c-2.394-14.96-13.11-25.012-26.666-25.012"/></symbol><use href="#svg-kinde"/></svg>
