<svg xmlns="http://www.w3.org/2000/svg" fill="none" viewBox="0 0 173 49"><path fill="currentColor" d="m164.01 11.446-4.012 25.207a.643.643 0 0 0 .642.746h4.748a.7.7 0 0 0 .698-.589l4.012-25.207a.643.643 0 0 0-.642-.746h-4.748a.69.69 0 0 0-.698.589m-5.07 7.356h-4.505a.7.7 0 0 0-.697.588l-.149.928s-3.499-3.794-9.694-1.23c-3.554 1.468-5.26 4.501-5.986 6.723 0 0-2.304 6.753 2.907 10.47 0 0 4.832 3.575 10.273-.22l-.094.592a.644.644 0 0 0 .37.686q.13.06.272.06h4.508a.69.69 0 0 0 .698-.589l2.742-17.262a.63.63 0 0 0-.149-.521.64.64 0 0 0-.496-.226zm-6.629 9.54a5 5 0 0 1-1.715 3.095 5.07 5.07 0 0 1-3.345 1.203 4.6 4.6 0 0 1-1.416-.206c-1.945-.62-3.055-2.474-2.736-4.484a5 5 0 0 1 1.717-3.093 5.08 5.08 0 0 1 3.343-1.207 4.6 4.6 0 0 1 1.416.208c1.957.616 3.062 2.473 2.741 4.485zm-24.056.477c2.443 0 4.806-.868 6.662-2.446a10.15 10.15 0 0 0 3.456-6.158c.789-4.993-3.14-9.351-8.71-9.351h-8.973a.7.7 0 0 0-.697.589L115.98 36.66a.644.644 0 0 0 .37.686q.13.06.272.06h4.751a.7.7 0 0 0 .697-.589l1.178-7.402a.69.69 0 0 1 .698-.59zm3.974-8.831c-.293 1.846-1.731 3.205-4.482 3.205h-3.517l1.068-6.713h3.454c2.844.005 3.77 1.67 3.477 3.513zM110.567 19.23l-5.434 9.105-2.758-9.038a.694.694 0 0 0-.672-.495h-4.904a.526.526 0 0 0-.527.446.5.5 0 0 0 .025.247l4.942 15.224-4.47 7.174a.516.516 0 0 0 .18.728.53.53 0 0 0 .269.07h5.282a.88.88 0 0 0 .751-.42l13.804-22.667a.51.51 0 0 0 .011-.53.52.52 0 0 0-.463-.263h-5.28a.88.88 0 0 0-.756.419m-16.548-.428H89.51a.7.7 0 0 0-.698.59l-.146.927s-3.502-3.794-9.697-1.23c-3.553 1.468-5.26 4.501-5.983 6.723 0 0-2.306 6.753 2.904 10.47 0 0 4.833 3.575 10.274-.22l-.094.592a.64.64 0 0 0 .37.686q.13.06.272.06h4.508a.7.7 0 0 0 .697-.589l2.743-17.262a.64.64 0 0 0-.37-.687.7.7 0 0 0-.272-.06zm-6.63 9.542a5 5 0 0 1-1.716 3.091 5.08 5.08 0 0 1-3.343 1.206 4.6 4.6 0 0 1-1.414-.206c-1.944-.62-3.053-2.474-2.734-4.485a5 5 0 0 1 1.723-3.098 5.08 5.08 0 0 1 3.353-1.201c.48-.005.959.065 1.417.208 1.937.616 3.04 2.472 2.72 4.485h-.005zm-24.055.476a10.28 10.28 0 0 0 6.656-2.449 10.14 10.14 0 0 0 3.452-6.156c.79-4.992-3.14-9.35-8.708-9.35H55.76a.7.7 0 0 0-.698.588l-4 25.2a.64.64 0 0 0 .37.687q.13.06.272.06h4.748a.7.7 0 0 0 .698-.59l1.176-7.402a.69.69 0 0 1 .698-.589zm3.974-8.832c-.293 1.846-1.73 3.205-4.481 3.205H59.31l1.066-6.713h3.454c2.845.005 3.77 1.671 3.478 3.513zM32.639 12.16c.107-5.566-4.484-9.836-10.797-9.836H8.784a1.28 1.28 0 0 0-1.262 1.078L2.29 36.095a1.038 1.038 0 0 0 1.025 1.2h7.736l-1.209 7.57a1.038 1.038 0 0 0 1.025 1.2h6.302c.304 0 .575-.109.807-.306.23-.198.268-.471.316-.772l1.85-10.884c.047-.3.2-.69.431-.888s.433-.306.738-.306h3.856c6.183 0 11.428-4.395 12.387-10.507.679-4.338-1.181-8.286-4.915-10.243z"/><path fill="currentColor" d="m12.725 25.238-1.927 12.218-1.21 7.664a1.038 1.038 0 0 0 1.026 1.199h6.67a1.276 1.276 0 0 0 1.26-1.078l1.758-11.139a1.28 1.28 0 0 1 1.261-1.078h3.926c6.183 0 11.428-4.51 12.388-10.622.68-4.338-1.504-8.286-5.238-10.243q-.015.694-.121 1.38c-.959 6.11-6.206 10.621-12.387 10.621h-6.145a1.28 1.28 0 0 0-1.261 1.079"/><path fill="currentColor" d="M10.797 37.456h-7.76a1.037 1.037 0 0 1-1.024-1.2L7.245 3.078A1.28 1.28 0 0 1 8.506 2h13.336c6.313 0 10.904 4.594 10.797 10.159-1.571-.824-3.417-1.295-5.439-1.295H16.082a1.28 1.28 0 0 0-1.262 1.078l-2.094 13.296z"/></svg>
