<svg width="137" height="44" viewBox="0 0 137 44" fill="none" xmlns="http://www.w3.org/2000/svg"><g clip-path="url(#a)"><path fill-rule="evenodd" clip-rule="evenodd" d="M26.268.247c.441 0 .883.368.883.883v9.858l6.915-6.99c.368-.367.956-.367 1.25 0l5.298 5.298c.294.294.368.883 0 1.177v.074l-6.99 6.915h9.86c.514 0 .882.368.882.883v7.43c0 .516-.368.884-.883.884h-9.858l6.989 6.915c.294.368.368.957 0 1.25l-5.297 5.298c-.294.294-.883.368-1.177 0h-.074l-6.916-6.99v9.86c0 .514-.367.882-.882.882h-7.43c-.516 0-.884-.368-.884-.883v-5.15c0-1.618.662-3.163 1.766-4.34l9.564-9.564a2.664 2.664 0 0 0 0-3.753l-9.49-9.49a6.18 6.18 0 0 1-1.84-4.34V1.13c0-.515.368-.883.883-.883zM10.892 4.072h.073l16.112 16.112a2.664 2.664 0 0 1 0 3.752L10.965 40.123c-.294.368-.883.368-1.25 0l-5.224-5.15c-.294-.368-.368-.883 0-1.25l6.989-7.063H1.622c-.515 0-.883-.368-.883-.883v-7.43c0-.516.368-.884.883-.884h9.858l-6.99-6.915a.996.996 0 0 1 0-1.251l5.224-5.224a.766.766 0 0 1 1.178 0" fill="currentColor"/></g><path d="M67.617 18.017q-.12-1.199-1.022-1.864-.902-.664-2.448-.664-1.052 0-1.775.297-.724.288-1.11.804a1.93 1.93 0 0 0-.378 1.17q-.02.544.228.951.258.407.704.704.447.287 1.031.506.585.208 1.25.357l1.824.436q1.33.298 2.44.794 1.11.495 1.923 1.22a5.1 5.1 0 0 1 1.26 1.705q.455.981.465 2.25-.01 1.864-.952 3.233-.931 1.358-2.697 2.112-1.754.743-4.233.743-2.46 0-4.284-.753-1.815-.754-2.836-2.231-1.01-1.488-1.06-3.679H60.1q.069 1.022.585 1.706.525.675 1.398 1.02.883.338 1.993.338 1.09 0 1.894-.317.813-.318 1.26-.883.445-.566.445-1.299 0-.684-.406-1.15-.398-.465-1.17-.793a12 12 0 0 0-1.874-.595l-2.211-.555q-2.568-.626-4.056-1.953-1.487-1.33-1.477-3.58-.01-1.845.982-3.222 1.001-1.379 2.746-2.152t3.966-.773q2.26 0 3.947.773 1.695.774 2.637 2.152t.972 3.192zM80.86 32.781q-2.34 0-4.025-.991a6.7 6.7 0 0 1-2.578-2.777q-.893-1.775-.893-4.085 0-2.34.903-4.105a6.7 6.7 0 0 1 2.588-2.766q1.675-1.001 3.986-1.001 1.993 0 3.49.723 1.497.724 2.37 2.033.872 1.309.961 3.074h-3.986q-.168-1.14-.892-1.835-.713-.703-1.874-.703-.981 0-1.715.535-.725.526-1.13 1.537-.408 1.01-.407 2.449 0 1.457.396 2.479.407 1.021 1.14 1.556.735.536 1.716.536.724 0 1.299-.298.584-.297.962-.862.386-.576.505-1.379h3.986q-.099 1.745-.952 3.074-.842 1.32-2.33 2.063t-3.52.743m13.012-.01q-1.458 0-2.598-.505a4.2 4.2 0 0 1-1.805-1.517q-.654-1.012-.654-2.519 0-1.27.466-2.132a3.8 3.8 0 0 1 1.27-1.388 6.2 6.2 0 0 1 1.824-.793 14 14 0 0 1 2.161-.377q1.329-.138 2.142-.258.813-.129 1.18-.376.367-.248.367-.734v-.06q0-.941-.595-1.457-.585-.516-1.666-.516-1.14 0-1.815.506-.674.495-.892 1.25l-3.906-.318q.297-1.388 1.17-2.4.871-1.02 2.25-1.566 1.388-.555 3.213-.555 1.269 0 2.43.297 1.17.297 2.071.922a4.5 4.5 0 0 1 1.438 1.606q.525.972.526 2.33v10.273h-4.006v-2.112h-.12a4.3 4.3 0 0 1-.98 1.26q-.615.534-1.478.842-.863.297-1.993.297m1.21-2.915q.931 0 1.645-.367.715-.376 1.12-1.011.407-.634.407-1.438v-1.616a2.3 2.3 0 0 1-.545.238q-.338.1-.763.188-.427.08-.853.15l-.773.108a5.2 5.2 0 0 0-1.3.347q-.555.238-.862.645-.307.396-.307.991 0 .863.624 1.319.635.446 1.606.446m14.03-17.679v20.307h-4.224V12.177zM116 32.771q-1.458 0-2.598-.505a4.2 4.2 0 0 1-1.805-1.517q-.654-1.012-.654-2.519 0-1.27.466-2.132a3.8 3.8 0 0 1 1.269-1.388 6.2 6.2 0 0 1 1.824-.793 14 14 0 0 1 2.162-.377q1.329-.138 2.142-.258.813-.129 1.18-.376.367-.248.367-.734v-.06q0-.941-.595-1.457-.585-.516-1.666-.516-1.14 0-1.815.506-.674.495-.892 1.25l-3.907-.318q.299-1.388 1.17-2.4.873-1.02 2.251-1.566 1.388-.555 3.213-.555 1.27 0 2.429.297 1.17.297 2.072.922a4.5 4.5 0 0 1 1.438 1.606q.525.972.525 2.33v10.273h-4.005v-2.112h-.119a4.3 4.3 0 0 1-.982 1.26q-.615.534-1.477.842-.863.297-1.993.297m1.209-2.915q.933 0 1.646-.367.714-.376 1.121-1.011.406-.634.406-1.438v-1.616a2.3 2.3 0 0 1-.545.238 10 10 0 0 1-.764.188q-.426.08-.852.15l-.774.108a5.2 5.2 0 0 0-1.299.347q-.555.238-.862.645-.308.396-.308.991 0 .863.625 1.319.635.446 1.606.446m9.807 2.628v-15.23h4.095v2.657h.158q.417-1.417 1.398-2.142.982-.733 2.261-.733.318 0 .684.04.367.039.645.108v3.749a5.5 5.5 0 0 0-.823-.16 7 7 0 0 0-.962-.069q-.932 0-1.666.407a3 3 0 0 0-1.15 1.11q-.416.714-.416 1.646v8.617z" fill="currentColor"/><defs><clipPath id="a"><path fill="#fff" d="M.739.248h43.627v43.627H.739z"/></clipPath></defs></svg>
