<svg xmlns="http://www.w3.org/2000/svg" preserveAspectRatio="none" viewBox="0 0 96 17.519" height="17.519" width="96"><path fill="currentColor" d="M6.375 0q2.007 0 3.4.732 1.392.708 2.195 1.96.803 1.251.992 2.88l-3.093.142q-.119-.92-.567-1.606a2.86 2.86 0 0 0-1.18-1.062q-.732-.402-1.795-.402-1.321 0-2.101.614-.755.59-.755 1.582 0 .685.307 1.133.33.449 1.156.779.827.307 2.314.662 2.244.471 3.565 1.204 1.322.731 1.889 1.7.567.968.567 2.219 0 1.534-.779 2.668-.78 1.11-2.196 1.723-1.416.591-3.329.591-2.077 0-3.589-.732-1.51-.732-2.384-2.031-.85-1.322-.992-3.069l3.117-.189q.141 1.086.613 1.842a3.3 3.3 0 0 0 1.299 1.157q.827.377 1.983.377.992 0 1.676-.236.71-.26 1.063-.732.378-.495.378-1.204 0-.638-.307-1.133-.307-.519-1.181-.921-.873-.425-2.597-.826-2.078-.472-3.329-1.063Q1.464 8.145.897 7.248q-.566-.92-.566-2.29 0-1.464.731-2.573Q1.794 1.251 3.14.638 4.486 0 6.375 0M29.83 4.25q2.691 0 4.061 1.369 1.393 1.346 1.393 3.872v7.65h-2.597l-.102-2.078a3.4 3.4 0 0 1-.583.897q-.59.686-1.534 1.086-.945.378-2.125.378-1.96 0-3.164-.897-1.204-.921-1.204-2.55t1.015-2.55 3.093-1.322l4.179-.826q0-1.345-.614-2.007-.613-.685-1.818-.685-1.086 0-1.723.52-.615.495-.85 1.44l-3.07-.142q.378-2.007 1.842-3.069Q27.493 4.25 29.83 4.25m35.36 0q1.794 0 3.14.803 1.369.802 2.102 2.313.731 1.512.732 3.636v.685h-8.949q.094 1.653.898 2.503.826.826 2.172.826 1.014 0 1.676-.449a2.4 2.4 0 0 0 .944-1.298l3.093.189q-.52 1.84-2.054 2.904-1.51 1.062-3.683 1.062-1.889 0-3.282-.803a5.55 5.55 0 0 1-2.148-2.313q-.756-1.488-.756-3.471t.756-3.447q.755-1.488 2.125-2.314 1.393-.826 3.234-.826m12.775 0q1.7 0 2.856.566 1.157.544 1.795 1.512.66.944.826 2.172l-3.046.141a3 3 0 0 0-.425-1.109 1.9 1.9 0 0 0-.826-.709q-.52-.26-1.228-.259-1.063 0-1.605.425-.543.425-.543 1.133 0 .495.236.826.26.331.826.543.567.189 1.511.354 1.983.308 3.117.803 1.156.472 1.629 1.228.495.732.496 1.771 0 1.203-.685 2.054-.662.85-1.889 1.298-1.204.425-2.833.425-1.866 0-3.14-.543-1.252-.543-1.936-1.511a4.3 4.3 0 0 1-.779-2.196l3.093-.141q.165.991.826 1.534t1.96.543q1.061 0 1.652-.33.614-.354.614-1.086 0-.426-.212-.709-.213-.283-.803-.495t-1.747-.425q-1.937-.331-3.046-.803-1.11-.496-1.582-1.228-.448-.732-.448-1.818 0-1.77 1.345-2.856 1.37-1.11 3.991-1.11m12.416 0q1.7 0 2.857.566 1.157.544 1.794 1.512.661.944.826 2.172l-3.045.141a3 3 0 0 0-.425-1.109 1.9 1.9 0 0 0-.827-.709q-.519-.26-1.227-.259-1.063 0-1.606.425t-.543 1.133q0 .495.236.826.26.331.827.543.566.189 1.511.354 1.983.308 3.116.803 1.156.472 1.629 1.228.496.732.496 1.771 0 1.203-.685 2.054-.66.85-1.888 1.298-1.205.425-2.834.425-1.865 0-3.14-.543-1.25-.543-1.936-1.511a4.3 4.3 0 0 1-.779-2.196l3.093-.141q.165.991.826 1.534t1.96.543q1.062 0 1.653-.33.614-.354.614-1.086 0-.426-.213-.709-.212-.283-.803-.495-.59-.213-1.747-.425-1.936-.331-3.046-.803-1.11-.496-1.581-1.228-.449-.732-.449-1.818 0-1.77 1.346-2.856 1.37-1.11 3.99-1.11M40.01 17.141h-3.022V4.533h3.022zM48.448 4.25q1.393 0 2.337.614a3.85 3.85 0 0 1 1.464 1.7q.496 1.062.496 2.479v8.098h-3.022v-7.13q0-1.063-.213-1.795-.211-.732-.708-1.109-.473-.402-1.275-.402-1.204 0-1.936.85-.708.85-.708 2.456v7.13h-3.022V4.533H44.6l.071 2.158q.19-.5.472-.883a3.56 3.56 0 0 1 1.44-1.18 4.5 4.5 0 0 1 1.865-.378m-29.099.283h3.329v2.338h-3.329v6.374q0 .874.377 1.228.378.33 1.181.331h1.771v2.337h-2.692q-1.889 0-2.786-.874-.873-.873-.874-2.738V6.87h-1.983V4.533h1.983V1.582h3.023zm38.089 12.608h-3.022V.378h3.022zm-28.434-5.147q-1.015.213-1.464.637-.425.402-.425 1.063 0 .732.472 1.133.496.402 1.393.402 1.015 0 1.747-.402a2.84 2.84 0 0 0 1.134-1.11q.4-.707.401-1.676v-.708ZM65.19 6.635q-1.204 0-2.007.779-.779.779-.968 2.243h5.832q-.094-1.536-.873-2.267-.78-.756-1.984-.755M38.523 0q.685 0 1.11.425.448.402.448 1.086 0 .708-.448 1.133-.425.402-1.11.402-.708 0-1.157-.402-.425-.425-.425-1.133 0-.684.425-1.086Q37.815 0 38.523 0"/></svg>
