<svg xmlns="http://www.w3.org/2000/svg" width="2048" height="407" fill="none" viewBox="0 0 2048 407"><path fill="currentColor" fill-rule="evenodd" d="M467.444 406.664 233.722.191 0 406.664zm235.742-18.503L898.51 18.668h-84.486L679.286 287.007 544.547 18.668h-84.486l195.324 369.493zM2034.31 18.668v369.494h-69.94V18.668zM1644.98 250.25q0-43.194 18.03-75.98c12.02-21.858 28.78-38.684 50.27-50.48s46.63-17.695 75.41-17.695q38.25 0 68.85 16.654 30.6 16.653 48.63 49.439c12.02 21.858 18.22 48.572 18.58 80.144v16.133h-206c1.45 22.898 8.19 40.939 20.21 54.123 12.39 12.837 28.97 19.255 49.73 19.255 13.11 0 25.14-3.469 36.06-10.408 10.93-6.939 19.13-16.306 24.59-28.102l71.59 5.204c-8.75 26.02-25.14 46.837-49.18 62.449-24.05 15.613-51.73 23.419-83.06 23.419-28.78 0-53.92-5.898-75.41-17.694s-38.25-28.623-50.27-50.48q-18.03-32.786-18.03-75.981m207.64-26.02c-2.55-22.552-9.65-39.031-21.31-49.44-11.66-10.755-25.86-16.133-42.62-16.133-19.31 0-34.97 5.725-46.99 17.174-12.03 11.449-19.49 27.582-22.41 48.399zm-325.66-49.44c11.66 9.368 18.94 22.378 21.86 39.031l72.12-3.643c-2.55-21.163-10.01-39.551-22.4-55.164s-28.41-27.581-48.09-35.908q-28.95-13.011-63.93-13.011c-28.78 0-53.91 5.899-75.41 17.695-21.49 11.796-38.25 28.622-50.27 50.48q-18.03 32.786-18.03 75.98t18.03 75.981c12.02 21.857 28.78 38.684 50.27 50.48 21.5 11.796 46.63 17.694 75.41 17.694 24.04 0 45.9-4.337 65.57-13.01 19.68-9.021 35.7-21.684 48.09-37.991s19.85-35.388 22.4-57.245l-72.67-3.123c-2.55 18.388-9.66 32.613-21.31 42.674-11.66 9.715-25.69 14.572-42.08 14.572-22.58 0-40.07-7.806-52.46-23.419q-18.57-23.418-18.57-66.613t18.57-66.613c12.39-15.612 29.88-23.418 52.46-23.418 15.67 0 29.14 4.857 40.44 14.571m-354.81-62.462h65.09l1.88 53.086c4.62-15.026 11.04-26.695 19.27-35.007 11.93-12.052 28.57-18.079 49.9-18.079h26.58v56.82h-27.12c-15.19 0-27.66 2.066-37.43 6.198q-14.1 6.198-21.69 19.629-7.05 13.43-7.05 34.091v159.095h-69.43zM871.925 174.27q-18.032 32.786-18.032 75.98t18.032 75.981q18.033 32.786 50.273 50.48t75.408 17.694c31.324 0 59.014-7.806 83.054-23.419 24.05-15.612 40.44-36.429 49.18-62.449l-71.58-5.204c-5.46 11.796-13.66 21.163-24.59 28.102q-16.394 10.408-36.064 10.408-31.147 0-49.726-19.255-18.033-19.776-20.218-54.123h206.008v-16.133c-.37-31.572-6.56-58.286-18.58-80.144q-18.03-32.786-48.63-49.439-30.599-16.654-68.854-16.654-43.168 0-75.408 17.695-32.24 17.693-50.273 50.48m168.305.52c11.65 10.409 18.76 26.888 21.31 49.44H928.208q4.372-31.226 22.404-48.399 18.033-17.174 46.994-17.174 25.132 0 42.624 16.133" clip-rule="evenodd"/></svg>
