<?xml version="1.0" encoding="UTF-8"?>
<svg width="452px" height="131px" viewBox="0 0 452 131" version="1.1" xmlns="http://www.w3.org/2000/svg" xmlns:xlink="http://www.w3.org/1999/xlink">
    <title>logo</title>
    <g id="Page-1" stroke="none" stroke-width="1" fill="none" fill-rule="evenodd">
        <g id="Artboard" transform="translate(-97, -113)" fill-rule="nonzero">
            <g id="logo" transform="translate(97, 113)">
                <path d="M130.66,41.7 L130.66,88.96 C130.66,111.99 111.99,130.66 88.96,130.66 L41.7,130.66 C18.67,130.66 0,111.99 0,88.96 L0,41.7 C0,18.67 18.67,0 41.7,0 L88.96,0 C111.99,0 130.66,18.67 130.66,41.7 Z M75.06,41.7 L55.6,41.7 C47.923,41.7 41.7,47.923 41.7,55.6 L41.7,75.06 C41.7,82.737 47.923,88.96 55.6,88.96 L75.06,88.96 C82.737,88.96 88.96,82.737 88.96,75.06 L88.96,55.6 C88.96,47.923 82.737,41.7 75.06,41.7 Z" id="Shape" fill="#000000"></path>
                <path d="M83.4,13.9 C101.824,13.9 116.76,28.836 116.76,47.26 L116.76,83.4 C116.76,101.824 101.824,116.76 83.4,116.76 L47.26,116.76 C28.836,116.76 13.9,101.824 13.9,83.4 L13.9,47.26 C13.9,28.836 28.836,13.9 47.26,13.9 L83.4,13.9 Z M75.06,41.7 L55.6,41.7 C47.923,41.7 41.7,47.923 41.7,55.6 L41.7,75.06 C41.7,82.737 47.923,88.96 55.6,88.96 L75.06,88.96 C82.737,88.96 88.96,82.737 88.96,75.06 L88.96,55.6 C88.96,47.923 82.737,41.7 75.06,41.7 Z" id="Shape" fill-opacity="0.4" fill="#FFFFFF"></path>
                <path d="M77.84,27.8 C91.658,27.8 102.86,39.002 102.86,52.82 L102.86,77.84 C102.86,91.658 91.658,102.86 77.84,102.86 L52.82,102.86 C39.002,102.86 27.8,91.658 27.8,77.84 L27.8,52.82 C27.8,39.002 39.002,27.8 52.82,27.8 L77.84,27.8 L77.84,27.8 Z M75.06,41.7 L55.6,41.7 C47.923,41.7 41.7,47.923 41.7,55.6 L41.7,75.06 C41.7,82.737 47.923,88.96 55.6,88.96 L75.06,88.96 C82.737,88.96 88.96,82.737 88.96,75.06 L88.96,55.6 C88.96,47.923 82.737,41.7 75.06,41.7 Z" id="Shape" fill-opacity="0.5" fill="#FFFFFF"></path>
                <path d="M174.06,99.167 C169.186,96.637 165.29,93.002 162.374,88.261 C159.458,83.519 158,77.947 158,71.546 C158,65.145 159.458,59.573 162.374,54.831 C165.291,50.09 169.186,46.454 174.06,43.925 C178.934,41.396 184.247,40.132 190,40.132 C194.234,40.132 197.89,40.665 200.966,41.732 C203.968977,42.7640506 206.844007,44.1363082 209.535,45.822 C211.133,46.849 211.932,48.232 211.932,49.972 C211.932,51.157 211.472,52.243 210.554,53.231 C209.634,54.219 208.576,54.713 207.378,54.713 C206.498,54.713 205.62,54.476 204.741,54.002 C202.104,52.658 199.847,51.69 197.97,51.097 C196.092,50.505 193.755,50.208 190.958,50.208 C184.088,50.208 178.694,52.164 174.778,56.076 C170.864,59.988 168.906,65.145 168.906,71.546 C168.906,77.947 170.864,83.104 174.779,87.016 C178.694,90.928 184.087,92.884 190.959,92.884 C193.755,92.884 196.092,92.587 197.969,91.994 C199.847,91.402 202.104,90.434 204.741,89.09 C205.62,88.616 206.499,88.38 207.378,88.38 C208.576,88.38 209.635,88.873 210.554,89.861 C211.473,90.849 211.932,91.935 211.932,93.121 C211.932,94.86 211.133,96.243 209.535,97.27 C206.843692,98.9557604 203.968322,100.32802 200.965,101.36 C197.89,102.427 194.235,102.96 190,102.96 C181.807466,102.96 181.331288,102.941386 174.06,99.167 Z M265.092,102.96 C255.47,102.96 247.957,100.214 242.554,94.721 C237.151,89.229 234.45,81.504 234.45,71.546 C234.45,65.935 235.475,60.759 237.526,56.016 C239.576,51.276 242.732,47.442 246.991,44.518 C251.251,41.594 256.495,40.132 262.726,40.132 C268.563,40.132 273.611,41.495 277.87,44.222 C282.129,46.948 285.363,50.584 287.571,55.128 C289.78,59.672 290.884,64.631 290.884,70.005 C290.884,71.506 290.391,72.771 289.405,73.798 C288.419,74.826 287.098,75.339 285.442,75.339 L245.335,75.339 C245.965,80.871 248.016,85.179 251.487,88.261 C254.957,91.343 259.807,92.884 266.039,92.884 C269.352,92.884 272.25,92.568 274.735,91.935 C277.251413,91.2909684 279.690896,90.3770004 282.011,89.209 C282.641,88.893 283.351,88.735 284.141,88.735 C285.402,88.735 286.507,89.169 287.453,90.039 C288.399,90.909 288.873,92.014 288.873,93.358 C288.873,95.097 287.847,96.558 285.797,97.744 C282.721,99.483 279.684,100.787 276.687,101.656 C273.69,102.526 269.825,102.96 265.092,102.96 L265.092,102.96 Z M280.236,66.567 C279.999,62.695 278.994,59.455 277.219,56.847 C275.445,54.239 273.256,52.322 270.653,51.097 C268.05,49.872 265.408,49.26 262.726,49.26 C260.044,49.26 257.402,49.872 254.799,51.097 C252.197,52.322 250.028,54.239 248.292,56.847 C246.557,59.455 245.572,62.695 245.335,66.567 L280.236,66.567 Z M323.349,102.404 C321.801,102.404 320.498,101.886 319.439,100.851 C318.379,99.816 317.85,98.541 317.85,97.028 L317.85,19.495 C317.85,17.982 318.38,16.688 319.439,15.613 C320.498,14.538 321.801,14 323.349,14 C324.979,14 326.322,14.518 327.381,15.553 C328.441,16.588 328.97,17.903 328.97,19.495 L328.97,97.028 C328.97,98.541 328.42,99.816 327.32,100.851 C326.22,101.886 324.897,102.404 323.349,102.404 Z M365.883,102.404 C364.335,102.404 363.032,101.886 361.973,100.851 C360.913,99.816 360.384,98.541 360.384,97.028 L360.384,19.495 C360.384,17.982 360.914,16.688 361.973,15.613 C363.032,14.538 364.335,14 365.883,14 C367.513,14 368.856,14.518 369.915,15.553 C370.975,16.588 371.504,17.903 371.504,19.495 L371.504,97.028 C371.504,98.541 370.954,99.816 369.854,100.851 C368.754,101.886 367.431,102.404 365.883,102.404 Z M418.051,102.96 C414.528,102.96 411.264,102.249 408.261,100.826 C405.257,99.404 402.875,97.329 401.113,94.603 C399.351,91.876 398.47,88.735 398.47,85.178 C398.47,79.33 400.813,74.668 405.498,71.19 C410.183,67.713 417.05,65.974 426.1,65.974 L440.636,65.974 L440.636,65.026 C440.636,59.81 439.335,56.056 436.732,53.764 C434.129,51.473 430.065,50.327 424.538,50.327 C421.495,50.327 418.792,50.564 416.43,51.038 C414.067,51.512 411.444,52.223 408.561,53.172 C407.921,53.33 407.4,53.409 406.999,53.409 C405.798,53.409 404.757,52.974 403.876,52.105 C402.995,51.235 402.554,50.169 402.554,48.905 C402.554,46.77 403.596,45.269 405.678,44.4 C412.485,41.555 419.413,40.132 426.461,40.132 C431.987,40.132 436.651,41.238 440.456,43.452 C444.26,45.664 447.063,48.529 448.865,52.046 C450.667,55.562 451.568,59.376 451.568,63.485 L451.568,97.033 C451.568,98.534 451.028,99.799 449.946,100.826 C448.865,101.854 447.564,102.367 446.042,102.367 C444.52,102.367 443.239,101.854 442.198,100.827 C441.157,99.799 440.636,98.534 440.636,97.033 L440.636,93.951 C434.71,99.957 427.181,102.96 418.051,102.96 L418.051,102.96 Z M422.136,93.477 C425.66,93.477 429.063,92.627 432.347,90.927 C435.631,89.229 438.394,87.115 440.637,84.586 L440.637,74.628 L427.542,74.628 C415.449,74.628 409.402,77.75 409.402,83.993 C409.402,86.838 410.383,89.13 412.345,90.869 C414.307,92.607 417.571,93.477 422.135,93.477 L422.136,93.477 Z" id="Shape" fill="#f0f6fc"></path>
            </g>
        </g>
    </g>
</svg>
