<svg xmlns="http://www.w3.org/2000/svg" width="272" height="60" fill="none" viewBox="62.42 34.48 272 60"><path fill="#1f2328" d="M156.93 42.51q8.34 0 12.24 3.72 3.96 3.66 3.96 9.66 0 3.84-1.74 6.96-1.68 3.06-5.1 4.92-3.42 1.8-8.4 1.8h-10.2v15.18h-8.16V42.51zm.12 20.46q3.78 0 5.82-1.86 2.1-1.86 2.1-4.92 0-3.36-2.04-5.04-1.98-1.74-5.88-1.74h-9.36v13.56zm39.043-10.26q5.4 0 8.4 3.3t3 9.9v18.84h-7.68V68.31q0-5.1-1.5-7.08-1.44-2.04-4.5-2.04-2.16 0-4.08 1.56-1.92 1.5-3.12 4.32-1.2 2.76-1.2 6.24v13.44h-7.68v-43.2h7.68v13.74q0 1.14-.24 1.98-.18.84-.6 1.86l-.24.6q-.24.42-.06.72.24.24.6.24.42-.06.6-.48 1.5-3.3 4.32-5.4t6.3-2.1m30.892 0q4.86 0 8.4 2.22 3.6 2.16 5.52 5.94 1.92 3.72 1.92 8.22 0 4.56-1.92 8.34-1.92 3.72-5.52 5.94-3.54 2.16-8.4 2.16-4.8 0-8.4-2.16-3.6-2.22-5.52-5.94-1.92-3.78-1.92-8.34 0-4.5 1.92-8.22 1.92-3.78 5.52-5.94 3.6-2.22 8.4-2.22m0 26.16q3.84 0 6-2.76 2.16-2.82 2.16-7.02t-2.16-6.96q-2.16-2.82-6-2.82-3.78 0-6 2.82-2.16 2.76-2.16 6.96t2.16 7.02q2.22 2.76 6 2.76m15.954-25.44h22.08v6.24h-22.08zm13.44 21.36q0 1.74.24 2.46t.9 1.02q.66.24 2.22.24h5.28v6.24h-7.14q-3.3 0-5.28-.84t-2.94-2.88-.96-5.7V44.79h7.68zm26.505-22.08q4.86 0 8.4 2.22 3.6 2.16 5.52 5.94 1.92 3.72 1.92 8.22 0 4.56-1.92 8.34-1.92 3.72-5.52 5.94-3.54 2.16-8.4 2.16-4.8 0-8.4-2.16-3.6-2.22-5.52-5.94-1.92-3.78-1.92-8.34 0-4.5 1.92-8.22 1.92-3.78 5.52-5.94 3.6-2.22 8.4-2.22m0 26.16q3.84 0 6-2.76 2.16-2.82 2.16-7.02t-2.16-6.96q-2.16-2.82-6-2.82-3.78 0-6 2.82-2.16 2.76-2.16 6.96t2.16 7.02q2.22 2.76 6 2.76m37.897-26.16q5.4 0 8.4 3.3t3 9.9v18.84h-7.68V68.31q0-5.1-1.5-7.08-1.44-2.04-4.5-2.04-2.16 0-4.08 1.56-1.92 1.5-3.12 4.32-1.2 2.76-1.2 6.24v13.44h-7.68V53.43h7.68v1.86q0 1.14-.24 1.98-.18.84-.6 1.86l-.24.6q-.24.42-.06.72.24.24.6.24.42-.06.6-.48 1.5-3.3 4.32-5.4t6.3-2.1M112.44 68.448h6.768c1.224 0 2.088 1.152 1.8 2.232l-5.184 20.592c-.144.792-.864 1.368-1.728 1.368h-6.84c-1.08 0-1.944-1.152-1.728-2.232l5.184-20.592c.216-.792.864-1.368 1.728-1.368M98.76 36.48h6.768c1.224 0 2.088 1.152 1.728 2.232l-5.04 20.592c-.288.792-1.008 1.368-1.872 1.368h-6.696c-1.224 0-2.088-1.152-1.728-2.232l5.112-20.592c.144-.792.936-1.368 1.728-1.368M71.688 51.312h6.768c1.152 0 2.016 1.152 1.728 2.304l-5.112 20.52c-.216.792-.936 1.368-1.728 1.368h-6.84c-1.152 0-2.088-1.08-1.728-2.232l5.112-20.52c.216-.864.936-1.44 1.8-1.44"/></svg>
