<svg width="1930" height="416" viewBox="0 0 1930 416" fill="none" xmlns="http://www.w3.org/2000/svg" color="#f0f6fc">
<g clip-path="url(#clip0_2696_7477)">
<path d="M198.163 153.323V415.122C195.732 415.125 193.3 414.685 190.99 413.802C190.967 413.793 190.944 413.784 190.921 413.775L12.7842 344.861C12.7625 344.853 12.7404 344.844 12.7188 344.836C5.05055 341.839 0 334.446 0 326.208V89.0166C0 84.5118 1.50999 80.2612 4.13086 76.8438L198.163 153.323ZM56.4111 284.95L77.0234 292.905L87.3291 296.883L118.247 335.575V308.816L138.858 316.771V206.842L56.4111 175.021V284.95Z" fill="currentColor"/>
<path fill-rule="evenodd" clip-rule="evenodd" d="M205.323 413.787C203.019 414.674 200.591 415.119 198.163 415.122V153.323L390.777 76.8442C393.366 80.2358 394.863 84.4427 394.88 88.9019V326.323C394.848 334.509 389.829 341.85 382.213 344.851C382.189 344.861 382.166 344.87 382.142 344.879L205.399 413.757C205.373 413.767 205.348 413.777 205.323 413.787Z" fill="currentColor" fill-opacity="0.6"/>
<path fill-rule="evenodd" clip-rule="evenodd" d="M205.28 2.72131C200.696 0.968689 195.628 0.962514 191.04 2.70395L12.9026 70.3181C9.34729 71.6675 6.34331 73.9587 4.13086 76.8435L198.163 153.323L390.777 76.8443C388.571 73.9548 385.573 71.6571 382.023 70.2995L205.28 2.72131Z" fill="currentColor" fill-opacity="0.8"/>
<path d="M56.4111 284.95L138.859 253.128V316.772L118.247 308.816V335.575L87.3362 296.883L56.4111 284.95Z" fill="currentColor" fill-opacity="0.16"/>
<path d="M515.14 240.79V91.1802H561.77V237.77C561.77 269.3 581.9 282.05 603.37 282.05C624.84 282.05 645.3 269.3 645.3 237.77V91.1802H691.93V240.79C691.93 293.79 650.67 326.33 603.37 326.33C556.07 326.33 515.14 293.79 515.14 240.79Z" fill="currentColor"/>
<path d="M862.35 236.43V322.31H818.4V238.78C818.4 214.29 803.64 203.22 788.54 203.22C773.44 203.22 753.32 211.61 753.32 240.12V322.31H709.37V165.65H753.32V192.15C760.03 171.02 784.85 161.62 800.28 161.62C841.21 161.62 862.68 189.46 862.34 236.43H862.35Z" fill="currentColor"/>
<path d="M1050.55 243.81C1050.55 294.13 1013.98 326.33 973.73 326.33C955.95 326.33 934.48 318.95 923.41 302.85V322.31H879.46V80.4399H923.41V184.43C934.48 168.66 955.95 161.62 973.73 161.62C1013.99 161.62 1050.55 193.49 1050.55 243.81ZM1005.6 243.81C1005.6 220.66 987.48 202.55 965.34 202.55C944.88 202.55 924.75 219.66 924.75 243.81C924.75 267.96 943.87 285.41 965.34 285.41C986.81 285.41 1005.6 266.62 1005.6 243.81Z" fill="currentColor"/>
<path d="M1060.28 80.4399H1104.23V322.31H1060.28V80.4399Z" fill="currentColor"/>
<path d="M1113.61 244.15C1113.61 194.5 1153.19 161.63 1197.81 161.63C1242.43 161.63 1282.01 194.51 1282.01 244.15C1282.01 293.79 1242.43 326.34 1197.81 326.34C1153.19 326.34 1113.61 293.46 1113.61 244.15ZM1237.4 244.15C1237.4 219.66 1219.62 202.55 1197.82 202.55C1176.02 202.55 1158.24 219.66 1158.24 244.15C1158.24 268.64 1176.02 285.41 1197.82 285.41C1219.62 285.41 1237.4 268.3 1237.4 244.15Z" fill="currentColor"/>
<path d="M1291.74 243.48C1291.74 193.83 1332 161.63 1377.62 161.63C1406.13 161.63 1428.95 174.71 1443.71 195.18L1410.5 218.33C1403.46 208.6 1390.37 202.56 1377.96 202.56C1353.13 202.56 1336.36 220.68 1336.36 243.49C1336.36 266.3 1353.13 285.42 1377.96 285.42C1390.37 285.42 1403.46 279.38 1410.5 269.65L1443.71 292.8C1428.95 313.26 1406.14 326.35 1377.62 326.35C1332 326.35 1291.74 293.14 1291.74 243.49V243.48Z" fill="currentColor"/>
<path d="M1552.4 322.31L1497.38 254.55V322.31H1453.43V80.4399H1497.38V213.62L1536.96 165.65H1593.32L1532.27 234.76L1607.08 322.32H1552.4V322.31Z" fill="currentColor"/>
<path d="M1748.31 258.24H1630.56C1635.26 276.69 1650.02 287.43 1670.82 287.43C1686.92 287.43 1702.35 280.05 1712.08 268.98L1737.58 294.81C1722.82 314.6 1695.65 326.34 1668.14 326.34C1619.83 326.34 1584.61 292.46 1584.61 244.15C1584.61 195.84 1623.19 161.63 1667.8 161.63C1712.41 161.63 1749.32 193.5 1749.32 241.47C1749.32 245.83 1748.98 251.2 1748.31 258.24ZM1705.04 229.73C1703.7 211.28 1688.6 199.54 1668.81 199.54C1650.69 199.54 1635.26 208.6 1630.57 229.73H1705.04Z" fill="currentColor"/>
<path d="M1929.8 80.4399V322.31H1885.85V302.85C1874.78 318.95 1852.97 326.33 1835.53 326.33C1795.27 326.33 1758.71 294.13 1758.71 243.81C1758.71 193.49 1795.28 161.62 1835.53 161.62C1853.65 161.62 1874.78 168.66 1885.85 184.77V80.4399H1929.8ZM1884.51 243.81C1884.51 219.66 1864.38 202.55 1843.92 202.55C1821.78 202.55 1803.33 220.67 1803.33 243.81C1803.33 266.95 1821.78 285.41 1843.92 285.41C1866.06 285.41 1884.51 267.63 1884.51 243.81Z" fill="currentColor"/>
</g>
<defs>
<clipPath id="clip0_2696_7477">
<rect width="1930" height="416.577" fill="white"/>
</clipPath>
</defs>
</svg>
