<svg xmlns="http://www.w3.org/2000/svg" viewBox="0 0 1024 1024" xml:space="preserve"><path fill="currentColor" d="M897.503 560.548c11.009 13.454 11.41 28.165 5.33 43.076-7.881 19.327-20.168 35.97-34.077 51.39-15.924 17.655-34.671 31.083-57.838 37.657-2.555.725-4.253 2.524-5.93 4.388-23.067 25.666-49.063 47.936-77.804 67.007-20.304 13.472-41.563 25.238-63.808 35.183-3.85 1.722-5.57 3.54-4.502 8.324 3.73 16.702 5.82 33.687 7.19 50.74.973 12.131-5.629 19.405-16.866 19.022-7.5-.255-12.463-5.114-13.461-13.444-1.957-16.326-4.39-32.573-8.126-48.593-1.471-6.309-3.303-12.537-5.057-18.777-2.268-8.074-1.067-11.848 6.333-15.703 16.541-8.617 33.418-16.6 49.858-25.402 30.11-16.121 57.901-35.537 82.165-59.75.7-.698 1.354-1.443 2.77-2.96-27.703-8.919-51.014-23.555-68.416-47.539-7.288 8.823-14.75 16.577-23.041 23.476-24.275 20.199-42.695 44.734-54.844 73.922-1.777 4.269-4.986 6.948-9.178 8.665-16.723 6.85-34.197 10.93-51.92 14.065-23.34 4.126-46.87 6.034-70.551 5.007-35.298-1.53-69.596-8.38-102.723-20.708-4.27-1.589-7.246-1.215-10.766 1.651-18.447 15.018-31.78 34.004-42.842 54.732-9.704 18.182-16.24 37.52-20.176 57.752-2.175 11.182-14.8 16.715-24.442 10.596-5.895-3.741-6.657-9.952-5.584-15.976 5.915-33.21 17.984-63.969 37.36-91.738 7.259-10.404 15.03-20.364 24.033-29.338 1.253-1.25 2.894-2.272 3.546-4.63-6.18-3.672-12.509-7.255-18.664-11.115-78.232-49.045-129.166-117.893-150.38-208.092-6.86-29.167-8.538-58.714-6.655-88.706 2.975-47.38 14.763-92.157 36.758-134.158 20.55-39.245 48.976-72.038 83.376-99.778 28.098-22.658 58.84-40.796 92.678-53.422 24.04-8.97 48.8-15.26 74.268-18.853 17.827-2.516 35.666-3.912 53.675-3.928 43.82-.04 85.94 8.533 126.493 24.797 51.015 20.46 94.629 51.3 130.288 93.364 35.528 41.91 58.671 89.768 70.322 143.325 5.686 26.14 7.665 52.64 6.839 79.308-.282 9.091-.716 18.284-2.595 27.274-.581 2.781.21 4.802 2.683 6.341 3.034 1.889 5.721 4.488 6.725 7.83 1.32 4.389 4.39 5.204 8.16 5.884 17.085 3.08 26.908 12.81 29.715 29.234.862 5.044-.183 9.956-1.465 14.76-.814 3.047-.308 4.912 2.587 6.474 3.228 1.74 5.977 4.23 8.56 7.366M555.38 685.702c18.074-3.21 35.643-8.205 52.658-15.082 29.307-11.846 52.89-30.541 69.309-57.889 2.33-3.883 2.849-7.605 1.835-11.875-2.377-10.02-4.506-20.1-6.913-30.113-4.613-19.183 1.504-36.4 18.892-45.403 3.994-2.067 7.792-4.525 12.139-5.783 3.353-.971 5.541-2.583 5.788-6.44.319-4.963 1.313-9.89 1.523-14.853 1.185-27.96-6.34-53.972-18.153-78.944-7.992-16.897-18.705-32.275-27.571-48.687-6.411-11.867-12.552-23.884-19.122-35.662-3.167-5.676-3.843-5.53-9.303-2.37-38.993 22.565-79.945 39.124-125.448 43.073-25.514 2.214-50.916 1.852-76.278-.632-28.703-2.81-56.188-10.483-82.053-23.472-2.498-1.255-4.118-1.02-6.032 1.108-5.363 5.96-10.505 12.085-14.653 18.949-22.394 37.057-38.407 76.198-41.002 120.14-1.305 22.088-.985 43.93 4.898 65.294 14.447 52.462 47.734 88.604 97.08 110.517 29.33 13.025 60.027 20.088 92.062 22.336 23.427 1.645 46.476-.163 70.344-4.212m1.334-489.145c28.78 7.225 55.18 19.605 79.089 37.123 17.682 12.956 34.288 27.076 45.174 46.659.968 1.743 2.614 2.482 4.174 3.42 10.6 6.371 20.692 13.372 29.165 22.528 26.29 28.407 38.27 62.77 40.813 100.62 1.818 27.054-.568 53.86-9.78 79.704-.807 2.26-1.999 4.542-1.137 8.539 17.201-20.385 36.583-28.978 60.762-13.164 2.783-10.76 3.171-21.43 3.527-31.98.691-20.476-.652-40.903-4.776-61.025-18.704-91.246-68.994-159.403-150.908-203.516-54.485-29.342-113.049-40.027-174.71-34.273-30.49 2.845-60.171 8.915-88.708 20.091-60.636 23.747-109.723 61.877-144.064 117.66-34.793 56.515-47.235 118.344-42.194 184.145 2.442 31.877 10.368 62.319 23.917 91.135 29.09 61.867 74.687 108.349 135.064 139.765 47.783 24.863 99.126 34.816 153.026 31.903 25.431-1.374 50.02-6.491 74.387-13.522 7.444-2.148 9.18-7.615 11.568-13.585-3.159-.89-5.413.487-7.746 1.13-41.303 11.363-83.126 16.149-125.873 10.544-34.776-4.56-68.228-13.626-99.256-30.134-70.489-37.504-106.312-96.629-108.575-176.283-.128-4.494.347-9.057-.255-13.479-3.604-26.456-4.867-52.808-.956-79.453 5.438-37.063 17.72-70.914 42.811-99.334 2.442-2.767 1.846-4.21-.349-6.523-7.897-8.322-13.6-18.071-17.793-28.71-3.548-9.005-3.036-10.903 4.297-17.29a30 30 0 0 1 2.36-1.846c31.669-22.37 64.873-41.903 101.13-56.079 28.203-11.027 57.13-18.928 87.33-21.44 26.2-2.178 52.15.005 78.486 6.67M722.061 622.46c.424.716.868 1.422 1.27 2.15 13.67 24.718 35.806 36.562 62.79 39.83 17.984 2.18 33.777-5.036 47.657-15.83 18.883-14.685 32.022-34.149 43.394-54.892 1.137-2.075 1.565-4.34 1.552-6.738-.017-3.006-.532-5.864-3.465-7.202-3.255-1.485-5.765.376-7.884 2.714-1.453 1.603-2.809 3.295-4.206 4.947-3.119 3.689-6.02 7.59-9.408 11.013-4.421 4.468-9.027 3.624-12.411-1.639-3.472-5.4-.82-9.81 1.928-14.31 7.79-12.763 12.593-26.769 16.893-40.972.427-1.411.522-2.945.614-4.432.216-3.527-1.057-6.323-4.595-7.413-3.61-1.112-6.677.105-8.6 3.324-1.703 2.848-3.099 5.89-4.493 8.91-4.196 9.083-8.785 17.964-13.94 26.532-3.322 5.521-6.826 7.02-10.958 5.275-5.435-2.295-8.133-7.225-6.774-12.84.7-2.895 1.707-5.73 2.752-8.528 4.714-12.609 10.417-24.88 12.81-38.271.793-4.439-.871-7.534-4.964-9.116-3.928-1.517-7.223-.159-9.617 3.156-.959 1.327-1.452 2.984-2.219 4.458-6.6 12.698-11.315 26.362-19.403 38.289-3.437 5.068-5.83 5.355-11.479 2.763-4.688-2.152-5.235-5.528-3.617-9.862.465-1.246.787-2.545 1.237-3.797 3.318-9.243 6.676-18.471 9.969-27.723 1.175-3.3 1.563-6.595-1.588-9.118-3.21-2.571-6.775-2.43-10.359-.887-1.867.803-3.278 2.242-4.61 3.76-3.97 4.53-7.315 9.488-10.353 14.681-7.005 11.973-12.106 24.84-17.726 37.464-3.041 6.83-5.734 7.24-10.754 1.492-3.185-3.647-6.432-7.22-10.24-10.231-4.884-3.863-11.183-4.32-16.305-1.238-4.86 2.924-6.478 7.613-5.102 14.392 4.237 20.875 11.576 40.604 22.204 59.889"/><path fill="currentColor" d="M362.403 849.591c2.864-17.53 7.277-34.182 14.134-50.111 2.724-6.327 8.939-10.03 14.994-9.596 8.203.59 13.405 8.3 11.181 17.684-2.905 12.26-6.49 24.358-9.663 36.557-1.88 7.227-3.024 14.596-4.115 21.99-1.135 7.689-4.384 10.468-12.04 11.469-9.983 1.305-16.463-4.271-16.138-14.247.145-4.452 1.002-8.881 1.647-13.746m116.099-283.105c18.76 4.037 36.741 2.067 54.519-3.258 3.658-1.096 7.292-2.356 11.15-2.54 11.994-.574 18.557 6.33 16.979 18.248-1.799 13.584-5.48 26.658-11.364 39.094-10.662 22.532-29.368 31.052-53.03 29.128-21.31-1.733-36.887-12.598-44.673-33.086-4.644-12.221-7.511-24.89-5.63-38.04 1.564-10.927 9.127-15.558 20.127-12.914 3.876.93 7.676 2.178 11.922 3.368m40.712 59.276c1.294-1.038 2.674-1.985 3.867-3.128 4.85-4.647 4.78-5.879-.406-10.115-11.366-9.286-29.82-8.891-41.583.63-3.666 2.966-3.437 5.287-.372 8.474 9.881 10.274 24.889 12.153 38.494 4.139m90.771-167.132c20.226 6.498 31.145 21.823 31.43 42.736.168 12.276-2.226 23.591-10.845 32.684-10.506 11.085-23.526 15.47-38.525 11.91-14.985-3.559-24.726-12.925-28.851-27.988-3.295-12.032-3.362-23.935.814-35.748 7.037-19.902 24.708-28.374 45.977-23.594m-19.457 19.793c-1.442.336-2.963.482-4.312 1.042-4.487 1.861-8.161 7.243-7.732 11.8.5 5.322 3.183 9.33 8.311 11.388 4.53 1.818 9.134.601 12.9-3.668 2.817-3.192 4.717-6.834 3.32-11.31-1.789-5.727-5.963-8.498-12.487-9.252m-149.906 9.348c2.4 20.69-1.21 39.144-18.087 52.432-15.615 12.294-39.198 7.981-50.123-8.426-11.53-17.314-10.7-44.636 2.296-60.466 10.316-12.564 24.06-16.377 39.488-12.592 14.77 3.625 23.687 13.43 26.426 29.052m-36.046 11.261c3.735-4.956 4.114-10.023.433-15.175-3.022-4.231-8.097-6.214-12.64-5.007-5.029 1.335-8.542 5.464-9.089 10.682-.612 5.842 1.595 10.13 6.734 12.748 5.348 2.725 9.962 1.217 14.562-3.248m234.176-67.121c-4.084-1.767-7.144-4.384-10.467-6.597-12.29-8.181-25.198-13.452-40.412-9.26-4.358 1.202-8.269-.265-10.681-4.465-2.449-4.262-1.946-9.076 1.648-12.909 6.094-6.5 14.27-8.008 22.473-7.61 18.373.89 32.742 10.094 44.815 23.378.78.857 1.454 1.83 2.059 2.822 2.073 3.402 4.776 6.79 1.981 10.985-2.657 3.988-6.606 4.716-11.416 3.656m-227.775-16.786c-14.81-.22-26.918 5.586-37.998 14.01-3.523 2.679-6.758 5.755-11.443 2.332-3.639-2.658-4.915-7.961-3.059-13.103 2.804-7.765 8.666-12.988 15.316-17.188 11.848-7.483 24.612-11.56 38.855-8.507 3.28.703 6.422 1.798 9.214 3.642 3.334 2.202 6.903 4.419 5.76 9.378-1.3 5.634-5.332 9.257-10.686 9.578-1.818.11-3.653-.082-5.959-.142"/></svg>
