<svg viewBox="0 0 346.524 63.977" height="241.803" width="1309.697" xmlns="http://www.w3.org/2000/svg"><g transform="matrix(.96564 0 0 .96252 -899.33 194.869)"><circle style="fill:#009688;fill-opacity:.980392;stroke:none;stroke-width:.141404;stop-color:#000" cx="964.562" cy="-169.223" r="33.234"/><path style="fill:#fff;fill-opacity:.980392;stroke:none;stroke-width:.146895;stop-color:#000" d="m962.269-187.408-6.645 14.803-3.036 6.764-6.644 14.804 30.591-21.568h-14.353l20.997-14.803z"/></g><path style="font-size:79.7151px;line-height:1.25;font-family:Ubuntu;-inkscape-font-specification:Ubuntu;letter-spacing:0;word-spacing:0;fill:#009688;stroke-width:1.99288" d="M89.523 59.41V4.169h33.32v6.616H97.256v16.66h22.72v6.537h-22.72v25.43zm52.293-5.34q2.63 0 4.623-.08 2.073-.16 3.428-.478V41.156q-.797-.399-2.63-.638-1.754-.319-4.305-.319-1.674 0-3.587.24-1.834.239-3.428 1.036-1.515.717-2.55 2.072-1.037 1.276-1.037 3.428 0 3.986 2.55 5.58 2.552 1.515 6.936 1.515m-.638-37.148q4.464 0 7.493 1.196 3.11 1.116 4.943 3.269 1.913 2.072 2.71 5.022.797 2.87.797 6.377v25.907q-.956.16-2.71.478-1.674.24-3.826.479t-4.704.398q-2.47.24-4.942.24-3.507 0-6.457-.718-2.95-.717-5.102-2.232-2.152-1.594-3.348-4.145t-1.195-6.138q0-3.428 1.355-5.9 1.435-2.47 3.826-3.985t5.58-2.232 6.696-.717q1.116 0 2.312.16 1.196.079 2.232.318 1.116.16 1.913.319.797.16 1.116.239v-2.073q0-1.833-.398-3.587-.399-1.833-1.435-3.188-1.037-1.435-2.87-2.232-1.754-.877-4.623-.877-3.667 0-6.457.558-2.71.478-4.066 1.036l-.877-6.138q1.435-.638 4.783-1.196 3.348-.638 7.254-.638m37.865 37.148q4.544 0 6.696-1.196 2.232-1.196 2.232-3.826 0-2.71-2.152-4.305t-7.095-3.587q-2.391-.957-4.623-1.913-2.153-1.037-3.747-2.392t-2.55-3.268-.958-4.703q0-5.5 4.066-8.69 4.065-3.268 11.08-3.268 1.754 0 3.508.24 1.754.159 3.268.478 1.515.239 2.63.558 1.196.319 1.834.558l-1.355 6.377q-1.196-.638-3.747-1.275-2.55-.718-6.138-.718-3.109 0-5.42 1.276-2.312 1.195-2.312 3.826 0 1.355.478 2.391.558 1.037 1.595 1.914 1.116.797 2.71 1.514 1.594.718 3.826 1.515 2.95 1.116 5.261 2.232 2.312 1.036 3.906 2.471 1.674 1.435 2.551 3.507.877 1.993.877 4.943 0 5.74-4.304 8.689-4.225 2.95-12.117 2.95-5.5 0-8.61-.957-3.108-.877-4.224-1.356l1.355-6.377q1.275.479 4.065 1.435t7.414.957m32.842-36.111h15.704v6.218h-15.704v19.131q0 3.109.479 5.182.478 1.993 1.435 3.188.956 1.116 2.391 1.595t3.348.478q3.348 0 5.341-.718 2.073-.797 2.87-1.116l1.435 6.138q-1.116.558-3.906 1.356-2.79.876-6.378.876-4.225 0-7.015-1.036-2.71-1.116-4.384-3.268t-2.391-5.261q-.638-3.189-.638-7.334V6.4l7.413-1.275zm62.497 41.452q-1.355-3.588-2.55-7.015-1.197-3.508-2.472-7.095h-25.03l-5.023 14.11h-8.05q3.188-8.77 5.978-16.183 2.79-7.493 5.42-14.189 2.71-6.696 5.341-12.754 2.63-6.138 5.5-12.117h7.095q2.87 5.979 5.5 12.117 2.631 6.058 5.262 12.754 2.71 6.696 5.5 14.19 2.79 7.413 5.979 16.182zm-7.254-20.487q-2.551-6.935-5.102-13.392-2.471-6.537-5.181-12.516-2.79 5.979-5.341 12.516-2.471 6.457-4.943 13.392zM304.992 3.61q11.639 0 17.857 4.464 6.297 4.384 6.297 13.153 0 4.783-1.754 8.21-1.674 3.349-4.942 5.501-3.189 2.073-7.812 3.03t-10.443.956h-6.138V59.41h-7.732V4.965q3.268-.797 7.254-1.036 4.065-.319 7.413-.319m.638 6.776q-4.942 0-7.573.239v21.682h5.82q3.985 0 7.174-.478 3.188-.558 5.34-1.754 2.233-1.275 3.428-3.427 1.196-2.153 1.196-5.5 0-3.19-1.275-5.262-1.196-2.072-3.348-3.268-2.073-1.276-4.863-1.754t-5.899-.478m33.162-6.218h7.732v55.243h-7.732z" aria-label="FastAPI"/></svg>